REM DIRINDEX 1\2\4\18,1\2\4\19,1\2\5\20,1\2\5\21,1\2\6\22,1\2\7\23,1\2\8\24,1\2\8\25,1\2\9\26,1\2\10\27,1\3\11\28,1\3\11\29,1\3\11\30,1\3\11\31,1\3\12\32,1\3\12\33,1\3\12\34,1\3\12\35,1\3\13\36,1\3\13\37,1\3\14\38,1\3\14\39,1\3\15\40,1\3\15\41,1\3\15\42,1\3\16\43,1\3\16\44,1\3\17\45,1\3\17\46
REM DIRNAME folder01,folder02,folder03,folder04,folder05,folder06,folder07,folder08,folder09,folder10,folder11,folder12,folder13,folder14,folder15,folder16,folder17,folder18,folder19,folder20,folder21,folder22,folder23,folder24,folder25,folder26,folder27,folder28,folder29,folder30,folder31,folder32,folder33,folder34,folder35,folder36,folder37,folder38,folder39,folder40,folder41,folder42,folder43,folder44,folder45,folder46
TITLE ""
FILE "16.mp3" MP3
  TRACK 01 AUDIO
    TITLE "0:"
    INDEX 01 00:00:00
  TRACK 02 AUDIO
    TITLE "26:cjc023_2676"
    INDEX 01 00:00:13
  TRACK 03 AUDIO
    TITLE "0:"
    INDEX 01 00:01:69
  TRACK 04 AUDIO
    TITLE "26:cjc023_2677"
    INDEX 01 00:02:45
  TRACK 05 AUDIO
    TITLE "0:"
    INDEX 01 00:03:72
  TRACK 06 AUDIO
    TITLE "26:cjc023_2678"
    INDEX 01 00:04:54
  TRACK 07 AUDIO
    TITLE "0:"
    INDEX 01 00:06:18
  TRACK 08 AUDIO
    TITLE "26:cjc023_2679"
    INDEX 01 00:06:71
  TRACK 09 AUDIO
    TITLE "0:"
    INDEX 01 00:08:30
  TRACK 10 AUDIO
    TITLE "26:cjc023_2680"
    INDEX 01 00:09:02
  TRACK 11 AUDIO
    TITLE "0:"
    INDEX 01 00:10:33
  TRACK 12 AUDIO
    TITLE "26:cjc023_2681"
    INDEX 01 00:11:09
  TRACK 13 AUDIO
    TITLE "0:"
    INDEX 01 00:12:56
  TRACK 14 AUDIO
    TITLE "26:cjc023_2682"
    INDEX 01 00:13:30
  TRACK 15 AUDIO
    TITLE "0:"
    INDEX 01 00:14:58
  TRACK 16 AUDIO
    TITLE "26:cjc023_2683"
    INDEX 01 00:15:34
  TRACK 17 AUDIO
    TITLE "0:"
    INDEX 01 00:17:31
  TRACK 18 AUDIO
    TITLE "26:cjc023_2684"
    INDEX 01 00:18:03
  TRACK 19 AUDIO
    TITLE "0:"
    INDEX 01 00:19:36
  TRACK 20 AUDIO
    TITLE "26:cjc023_2685"
    INDEX 01 00:20:10
  TRACK 21 AUDIO
    TITLE "0:"
    INDEX 01 00:21:64
  TRACK 22 AUDIO
    TITLE "26:cjc023_2686"
    INDEX 01 00:22:34
  TRACK 23 AUDIO
    TITLE "0:"
    INDEX 01 00:24:18
  TRACK 24 AUDIO
    TITLE "26:cjc023_2687"
    INDEX 01 00:24:65
  TRACK 25 AUDIO
    TITLE "0:"
    INDEX 01 00:26:18
  TRACK 26 AUDIO
    TITLE "26:cjc023_2688"
    INDEX 01 00:26:67
  TRACK 27 AUDIO
    TITLE "0:"
    INDEX 01 00:28:31
  TRACK 28 AUDIO
    TITLE "26:cjc023_2689"
    INDEX 01 00:29:03
  TRACK 29 AUDIO
    TITLE "0:"
    INDEX 01 00:30:61
  TRACK 30 AUDIO
    TITLE "26:cjc023_2690"
    INDEX 01 00:31:33
  TRACK 31 AUDIO
    TITLE "0:"
    INDEX 01 00:32:58
  TRACK 32 AUDIO
    TITLE "26:cjc023_2691"
    INDEX 01 00:33:30
  TRACK 33 AUDIO
    TITLE "0:"
    INDEX 01 00:34:69
  TRACK 34 AUDIO
    TITLE "26:cjc023_2692"
    INDEX 01 00:35:41
  TRACK 35 AUDIO
    TITLE "0:"
    INDEX 01 00:37:63
  TRACK 36 AUDIO
    TITLE "26:cjc023_2693"
    INDEX 01 00:38:37
  TRACK 37 AUDIO
    TITLE "0:"
    INDEX 01 00:40:09
  TRACK 38 AUDIO
    TITLE "26:cjc023_2694"
    INDEX 01 00:40:60
  TRACK 39 AUDIO
    TITLE "0:"
    INDEX 01 00:42:51
  TRACK 40 AUDIO
    TITLE "26:cjc023_2695"
    INDEX 01 00:43:25
  TRACK 41 AUDIO
    TITLE "0:"
    INDEX 01 00:45:04
  TRACK 42 AUDIO
    TITLE "26:cjc023_2696"
    INDEX 01 00:45:51
  TRACK 43 AUDIO
    TITLE "0:"
    INDEX 01 00:47:15
  TRACK 44 AUDIO
    TITLE "26:cjc023_2697"
    INDEX 01 00:47:64
  TRACK 45 AUDIO
    TITLE "0:"
    INDEX 01 00:49:16
  TRACK 46 AUDIO
    TITLE "26:cjc023_2698"
    INDEX 01 00:49:69
  TRACK 47 AUDIO
    TITLE "0:"
    INDEX 01 00:51:63
  TRACK 48 AUDIO
    TITLE "26:cjc023_2699"
    INDEX 01 00:52:45
  TRACK 49 AUDIO
    TITLE "0:"
    INDEX 01 00:54:25
  TRACK 50 AUDIO
    TITLE "26:cjc023_2700"
    INDEX 01 00:54:72
  TRACK 51 AUDIO
    TITLE "0:"
    INDEX 01 00:56:45
  TRACK 52 AUDIO
    TITLE "26:cjc023_2701"
    INDEX 01 00:57:23
  TRACK 53 AUDIO
    TITLE "0:"
    INDEX 01 00:59:04
  TRACK 54 AUDIO
    TITLE "26:cjc023_2702"
    INDEX 01 00:59:49
  TRACK 55 AUDIO
    TITLE "0:"
    INDEX 01 01:00:60
  TRACK 56 AUDIO
    TITLE "26:cjc023_2703"
    INDEX 01 01:01:38
  TRACK 57 AUDIO
    TITLE "0:"
    INDEX 01 01:03:18
  TRACK 58 AUDIO
    TITLE "26:cjc023_2704"
    INDEX 01 01:03:65
  TRACK 59 AUDIO
    TITLE "0:"
    INDEX 01 01:04:72
  TRACK 60 AUDIO
    TITLE "26:cjc023_2705"
    INDEX 01 01:05:42
  TRACK 61 AUDIO
    TITLE "0:"
    INDEX 01 01:06:63
  TRACK 62 AUDIO
    TITLE "26:cjc023_2706"
    INDEX 01 01:07:35
  TRACK 63 AUDIO
    TITLE "0:"
    INDEX 01 01:08:48
  TRACK 64 AUDIO
    TITLE "26:cjc023_2707"
    INDEX 01 01:09:26
  TRACK 65 AUDIO
    TITLE "0:"
    INDEX 01 01:10:63
  TRACK 66 AUDIO
    TITLE "26:cjc023_2708"
    INDEX 01 01:11:39
  TRACK 67 AUDIO
    TITLE "0:"
    INDEX 01 01:12:66
  TRACK 68 AUDIO
    TITLE "26:cjc023_2709"
    INDEX 01 01:13:36
  TRACK 69 AUDIO
    TITLE "0:"
    INDEX 01 01:14:61
  TRACK 70 AUDIO
    TITLE "26:cjc023_2710"
    INDEX 01 01:15:33
  TRACK 71 AUDIO
    TITLE "0:"
    INDEX 01 01:16:46
  TRACK 72 AUDIO
    TITLE "26:cjc023_2711"
    INDEX 01 01:17:18
  TRACK 73 AUDIO
    TITLE "0:"
    INDEX 01 01:19:09
  TRACK 74 AUDIO
    TITLE "26:cjc023_2712"
    INDEX 01 01:19:56
  TRACK 75 AUDIO
    TITLE "0:"
    INDEX 01 01:21:16
  TRACK 76 AUDIO
    TITLE "26:cjc023_2713"
    INDEX 01 01:21:61
  TRACK 77 AUDIO
    TITLE "0:"
    INDEX 01 01:23:22
  TRACK 78 AUDIO
    TITLE "26:cjc023_2714"
    INDEX 01 01:23:69
  TRACK 79 AUDIO
    TITLE "0:"
    INDEX 01 01:26:36
  TRACK 80 AUDIO
    TITLE "26:cjc023_2715"
    INDEX 01 01:27:10
  TRACK 81 AUDIO
    TITLE "0:"
    INDEX 01 01:28:27
  TRACK 82 AUDIO
    TITLE "26:cjc023_2716"
    INDEX 01 01:28:74
  TRACK 83 AUDIO
    TITLE "0:"
    INDEX 01 01:30:48
  TRACK 84 AUDIO
    TITLE "26:cjc023_2717"
    INDEX 01 01:31:20
  TRACK 85 AUDIO
    TITLE "0:"
    INDEX 01 01:32:60
  TRACK 86 AUDIO
    TITLE "26:cjc023_2718"
    INDEX 01 01:33:38
  TRACK 87 AUDIO
    TITLE "0:"
    INDEX 01 01:35:06
  TRACK 88 AUDIO
    TITLE "26:cjc023_2719"
    INDEX 01 01:35:57
  TRACK 89 AUDIO
    TITLE "0:"
    INDEX 01 01:37:17
  TRACK 90 AUDIO
    TITLE "26:cjc023_2720"
    INDEX 01 01:37:64
  TRACK 91 AUDIO
    TITLE "0:"
    INDEX 01 01:39:10
  TRACK 92 AUDIO
    TITLE "26:cjc023_2721"
    INDEX 01 01:39:55
  TRACK 93 AUDIO
    TITLE "0:"
    INDEX 01 01:41:22
  TRACK 94 AUDIO
    TITLE "26:cjc023_2722"
    INDEX 01 01:41:67
  TRACK 95 AUDIO
    TITLE "0:"
    INDEX 01 01:43:27
  TRACK 96 AUDIO
    TITLE "26:cjc023_2723"
    INDEX 01 01:44:03
  TRACK 97 AUDIO
    TITLE "0:"
    INDEX 01 01:45:24
  TRACK 98 AUDIO
    TITLE "26:cjc023_2724"
    INDEX 01 01:46:00
  TRACK 99 AUDIO
    TITLE "0:"
    INDEX 01 01:47:19
  TRACK 100 AUDIO
    TITLE "26:cjc023_2725"
    INDEX 01 01:47:66
  TRACK 101 AUDIO
    TITLE "0:"
    INDEX 01 01:49:28
  TRACK 102 AUDIO
    TITLE "26:cjc023_2726"
    INDEX 01 01:50:00
  TRACK 103 AUDIO
    TITLE "0:"
    INDEX 01 01:51:40
  TRACK 104 AUDIO
    TITLE "26:cjc023_2727"
    INDEX 01 01:52:14
  TRACK 105 AUDIO
    TITLE "0:"
    INDEX 01 01:53:57
  TRACK 106 AUDIO
    TITLE "26:cjc023_2728"
    INDEX 01 01:54:27
  TRACK 107 AUDIO
    TITLE "0:"
    INDEX 01 01:56:18
  TRACK 108 AUDIO
    TITLE "26:cjc023_2729"
    INDEX 01 01:56:63
  TRACK 109 AUDIO
    TITLE "0:"
    INDEX 01 01:58:36
  TRACK 110 AUDIO
    TITLE "26:cjc023_2730"
    INDEX 01 01:59:08
  TRACK 111 AUDIO
    TITLE "0:"
    INDEX 01 02:00:33
  TRACK 112 AUDIO
    TITLE "26:cjc023_2731"
    INDEX 01 02:01:05
  TRACK 113 AUDIO
    TITLE "0:"
    INDEX 01 02:02:40
  TRACK 114 AUDIO
    TITLE "26:cjc023_2732"
    INDEX 01 02:03:10
  TRACK 115 AUDIO
    TITLE "0:"
    INDEX 01 02:05:54
  TRACK 116 AUDIO
    TITLE "26:cjc023_2733"
    INDEX 01 02:06:26
  TRACK 117 AUDIO
    TITLE "0:"
    INDEX 01 02:07:57
  TRACK 118 AUDIO
    TITLE "26:cjc023_2734"
    INDEX 01 02:08:31
  TRACK 119 AUDIO
    TITLE "0:"
    INDEX 01 02:10:28
  TRACK 120 AUDIO
    TITLE "26:cjc023_2735"
    INDEX 01 02:11:00
  TRACK 121 AUDIO
    TITLE "0:"
    INDEX 01 02:12:36
  TRACK 122 AUDIO
    TITLE "26:cjc023_2736"
    INDEX 01 02:13:09
  TRACK 123 AUDIO
    TITLE "0:"
    INDEX 01 02:14:45
  TRACK 124 AUDIO
    TITLE "26:cjc023_2737"
    INDEX 01 02:15:17
  TRACK 125 AUDIO
    TITLE "0:"
    INDEX 01 02:17:24
  TRACK 126 AUDIO
    TITLE "26:cjc023_2738"
    INDEX 01 02:17:71
  TRACK 127 AUDIO
    TITLE "0:"
    INDEX 01 02:19:33
  TRACK 128 AUDIO
    TITLE "26:cjc023_2739"
    INDEX 01 02:20:07
  TRACK 129 AUDIO
    TITLE "0:"
    INDEX 01 02:21:69
  TRACK 130 AUDIO
    TITLE "26:cjc023_2740"
    INDEX 01 02:22:41
  TRACK 131 AUDIO
    TITLE "0:"
    INDEX 01 02:24:22
  TRACK 132 AUDIO
    TITLE "26:cjc023_2741"
    INDEX 01 02:24:71
  TRACK 133 AUDIO
    TITLE "0:"
    INDEX 01 02:26:37
  TRACK 134 AUDIO
    TITLE "26:cjc023_2742"
    INDEX 01 02:27:11
  TRACK 135 AUDIO
    TITLE "0:"
    INDEX 01 02:28:57
  TRACK 136 AUDIO
    TITLE "26:cjc023_2743"
    INDEX 01 02:29:31
  TRACK 137 AUDIO
    TITLE "0:"
    INDEX 01 02:31:06
  TRACK 138 AUDIO
    TITLE "26:cjc023_2744"
    INDEX 01 02:31:53
  TRACK 139 AUDIO
    TITLE "0:"
    INDEX 01 02:33:09
  TRACK 140 AUDIO
    TITLE "26:cjc023_2745"
    INDEX 01 02:33:56
  TRACK 141 AUDIO
    TITLE "0:"
    INDEX 01 02:36:66
  TRACK 142 AUDIO
    TITLE "26:cjc023_2746"
    INDEX 01 02:37:38
  TRACK 143 AUDIO
    TITLE "0:"
    INDEX 01 02:39:18
  TRACK 144 AUDIO
    TITLE "26:cjc023_2747"
    INDEX 01 02:39:65
  TRACK 145 AUDIO
    TITLE "0:"
    INDEX 01 02:41:15
  TRACK 146 AUDIO
    TITLE "26:cjc023_2748"
    INDEX 01 02:41:66
  TRACK 147 AUDIO
    TITLE "0:"
    INDEX 01 02:45:36
  TRACK 148 AUDIO
    TITLE "26:cjc023_2749"
    INDEX 01 02:46:06
  TRACK 149 AUDIO
    TITLE "0:"
    INDEX 01 02:47:37
  TRACK 150 AUDIO
    TITLE "26:cjc023_2750"
    INDEX 01 02:48:07
  TRACK 151 AUDIO
    TITLE "0:"
    INDEX 01 02:49:57
  TRACK 152 AUDIO
    TITLE "26:cjc023_2751"
    INDEX 01 02:50:35
  TRACK 153 AUDIO
    TITLE "0:"
    INDEX 01 02:52:12
  TRACK 154 AUDIO
    TITLE "26:cjc023_2752"
    INDEX 01 02:52:63
  TRACK 155 AUDIO
    TITLE "0:"
    INDEX 01 02:55:01
  TRACK 156 AUDIO
    TITLE "26:cjc023_2753"
    INDEX 01 02:55:44
  TRACK 157 AUDIO
    TITLE "0:"
    INDEX 01 02:56:67
  TRACK 158 AUDIO
    TITLE "26:cjc023_2754"
    INDEX 01 02:57:33
  TRACK 159 AUDIO
    TITLE "0:"
    INDEX 01 02:59:13
  TRACK 160 AUDIO
    TITLE "26:cjc023_2755"
    INDEX 01 02:59:60
  TRACK 161 AUDIO
    TITLE "0:"
    INDEX 01 03:01:04
  TRACK 162 AUDIO
    TITLE "26:cjc023_2756"
    INDEX 01 03:01:49
  TRACK 163 AUDIO
    TITLE "0:"
    INDEX 01 03:03:04
  TRACK 164 AUDIO
    TITLE "26:cjc023_2757"
    INDEX 01 03:03:53
  TRACK 165 AUDIO
    TITLE "0:"
    INDEX 01 03:05:19
  TRACK 166 AUDIO
    TITLE "26:cjc023_2758"
    INDEX 01 03:05:66
  TRACK 167 AUDIO
    TITLE "0:"
    INDEX 01 03:07:16
  TRACK 168 AUDIO
    TITLE "26:cjc023_2759"
    INDEX 01 03:07:69
  TRACK 169 AUDIO
    TITLE "0:"
    INDEX 01 03:09:31
  TRACK 170 AUDIO
    TITLE "26:cjc023_2760"
    INDEX 01 03:09:74
  TRACK 171 AUDIO
    TITLE "0:"
    INDEX 01 03:11:27
  TRACK 172 AUDIO
    TITLE "26:cjc023_2761"
    INDEX 01 03:12:00
  TRACK 173 AUDIO
    TITLE "0:"
    INDEX 01 03:13:42
  TRACK 174 AUDIO
    TITLE "26:cjc023_2762"
    INDEX 01 03:14:10
  TRACK 175 AUDIO
    TITLE "0:"
    INDEX 01 03:15:45
  TRACK 176 AUDIO
    TITLE "26:cjc023_2763"
    INDEX 01 03:16:15
  TRACK 177 AUDIO
    TITLE "0:"
    INDEX 01 03:17:40
  TRACK 178 AUDIO
    TITLE "26:cjc023_2764"
    INDEX 01 03:18:10
  TRACK 179 AUDIO
    TITLE "0:"
    INDEX 01 03:20:13
  TRACK 180 AUDIO
    TITLE "26:cjc023_2765"
    INDEX 01 03:20:60
  TRACK 181 AUDIO
    TITLE "0:"
    INDEX 01 03:21:67
  TRACK 182 AUDIO
    TITLE "26:cjc023_2766"
    INDEX 01 03:22:41
  TRACK 183 AUDIO
    TITLE "0:"
    INDEX 01 03:23:52
  TRACK 184 AUDIO
    TITLE "26:cjc023_2767"
    INDEX 01 03:24:22
  TRACK 185 AUDIO
    TITLE "0:"
    INDEX 01 03:25:57
  TRACK 186 AUDIO
    TITLE "26:cjc023_2768"
    INDEX 01 03:26:25
  TRACK 187 AUDIO
    TITLE "0:"
    INDEX 01 03:27:58
  TRACK 188 AUDIO
    TITLE "26:cjc023_2769"
    INDEX 01 03:28:28
  TRACK 189 AUDIO
    TITLE "0:"
    INDEX 01 03:29:49
  TRACK 190 AUDIO
    TITLE "26:cjc023_2770"
    INDEX 01 03:30:21
  TRACK 191 AUDIO
    TITLE "0:"
    INDEX 01 03:31:36
  TRACK 192 AUDIO
    TITLE "26:cjc023_2771"
    INDEX 01 03:32:16
  TRACK 193 AUDIO
    TITLE "0:"
    INDEX 01 03:33:53
  TRACK 194 AUDIO
    TITLE "26:cjc023_2772"
    INDEX 01 03:34:23
  TRACK 195 AUDIO
    TITLE "0:"
    INDEX 01 03:35:63
  TRACK 196 AUDIO
    TITLE "26:cjc023_2773"
    INDEX 01 03:36:37
  TRACK 197 AUDIO
    TITLE "0:"
    INDEX 01 03:37:66
  TRACK 198 AUDIO
    TITLE "26:cjc023_2774"
    INDEX 01 03:38:38
  TRACK 199 AUDIO
    TITLE "0:"
    INDEX 01 03:40:19
  TRACK 200 AUDIO
    TITLE "26:cjc023_2775"
    INDEX 01 03:40:62
  TRACK 201 AUDIO
    TITLE "0:"
    INDEX 01 03:42:46
  TRACK 202 AUDIO
    TITLE "26:cjc023_2776"
    INDEX 01 03:43:16
  TRACK 203 AUDIO
    TITLE "0:"
    INDEX 01 03:44:43
  TRACK 204 AUDIO
    TITLE "26:cjc023_2777"
    INDEX 01 03:45:19
  TRACK 205 AUDIO
    TITLE "0:"
    INDEX 01 03:46:57
  TRACK 206 AUDIO
    TITLE "26:cjc023_2778"
    INDEX 01 03:47:31
  TRACK 207 AUDIO
    TITLE "0:"
    INDEX 01 03:49:52
  TRACK 208 AUDIO
    TITLE "26:cjc023_2779"
    INDEX 01 03:50:26
  TRACK 209 AUDIO
    TITLE "0:"
    INDEX 01 03:52:24
  TRACK 210 AUDIO
    TITLE "26:cjc023_2780"
    INDEX 01 03:52:73
  TRACK 211 AUDIO
    TITLE "0:"
    INDEX 01 03:54:55
  TRACK 212 AUDIO
    TITLE "26:cjc023_2781"
    INDEX 01 03:55:29
  TRACK 213 AUDIO
    TITLE "0:"
    INDEX 01 03:57:12
  TRACK 214 AUDIO
    TITLE "26:cjc023_2782"
    INDEX 01 03:57:61
  TRACK 215 AUDIO
    TITLE "0:"
    INDEX 01 03:59:36
  TRACK 216 AUDIO
    TITLE "26:cjc023_2783"
    INDEX 01 04:00:10
  TRACK 217 AUDIO
    TITLE "0:"
    INDEX 01 04:01:39
  TRACK 218 AUDIO
    TITLE "26:cjc023_2784"
    INDEX 01 04:02:13
  TRACK 219 AUDIO
    TITLE "0:"
    INDEX 01 04:03:48
  TRACK 220 AUDIO
    TITLE "26:cjc023_2785"
    INDEX 01 04:04:24
  TRACK 221 AUDIO
    TITLE "0:"
    INDEX 01 04:05:53
  TRACK 222 AUDIO
    TITLE "26:cjc023_2786"
    INDEX 01 04:06:29
  TRACK 223 AUDIO
    TITLE "0:"
    INDEX 01 04:08:33
  TRACK 224 AUDIO
    TITLE "26:cjc023_2787"
    INDEX 01 04:09:07
  TRACK 225 AUDIO
    TITLE "0:"
    INDEX 01 04:10:36
  TRACK 226 AUDIO
    TITLE "26:cjc023_2788"
    INDEX 01 04:11:08
  TRACK 227 AUDIO
    TITLE "0:"
    INDEX 01 04:13:09
  TRACK 228 AUDIO
    TITLE "26:cjc023_2789"
    INDEX 01 04:13:58
  TRACK 229 AUDIO
    TITLE "0:"
    INDEX 01 04:15:33
  TRACK 230 AUDIO
    TITLE "26:cjc023_2790"
    INDEX 01 04:16:09
  TRACK 231 AUDIO
    TITLE "0:"
    INDEX 01 04:17:60
  TRACK 232 AUDIO
    TITLE "26:cjc023_2791"
    INDEX 01 04:18:34
  TRACK 233 AUDIO
    TITLE "0:"
    INDEX 01 04:20:15
  TRACK 234 AUDIO
    TITLE "26:cjc023_2792"
    INDEX 01 04:20:62
  TRACK 235 AUDIO
    TITLE "0:"
    INDEX 01 04:22:39
  TRACK 236 AUDIO
    TITLE "26:cjc023_2793"
    INDEX 01 04:23:13
  TRACK 237 AUDIO
    TITLE "0:"
    INDEX 01 04:25:16
  TRACK 238 AUDIO
    TITLE "26:cjc023_2794"
    INDEX 01 04:25:63
  TRACK 239 AUDIO
    TITLE "0:"
    INDEX 01 04:28:03
  TRACK 240 AUDIO
    TITLE "26:cjc023_2795"
    INDEX 01 04:28:50
  TRACK 241 AUDIO
    TITLE "0:"
    INDEX 01 04:30:02
